<svg width="44" height="42" viewBox="0 0 44 42" fill="none" xmlns="http://www.w3.org/2000/svg">
<g clip-path="url(#clip0_75_59)">
<path d="M33.6875 0H10.3125C4.61706 0 0 4.4072 0 9.84375V32.1562C0 37.5928 4.61706 42 10.3125 42H33.6875C39.3829 42 44 37.5928 44 32.1562V9.84375C44 4.4072 39.3829 0 33.6875 0Z" fill="url(#paint0_radial_75_59)"/>
<path d="M33.6875 0H10.3125C4.61706 0 0 4.4072 0 9.84375V32.1562C0 37.5928 4.61706 42 10.3125 42H33.6875C39.3829 42 44 37.5928 44 32.1562V9.84375C44 4.4072 39.3829 0 33.6875 0Z" fill="url(#paint1_radial_75_59)"/>
<path d="M22.0015 4.59375C17.3338 4.59375 16.7478 4.61327 14.9146 4.69284C13.0848 4.77291 11.8358 5.04935 10.743 5.45508C9.61245 5.87409 8.65356 6.4347 7.69828 7.34688C6.74214 8.25891 6.15484 9.17421 5.7145 10.2529C5.28825 11.2964 4.9983 12.4891 4.91597 14.2349C4.83398 15.9849 4.8125 16.5444 4.8125 21.0002C4.8125 25.4559 4.83313 26.0134 4.91631 27.7633C5.00053 29.5099 5.29014 30.7022 5.71484 31.7453C6.15416 32.8245 6.74145 33.7398 7.69708 34.6516C8.65219 35.5643 9.61108 36.1262 10.7408 36.5452C11.8345 36.951 13.0836 37.2274 14.9131 37.3075C16.7465 37.3871 17.3319 37.4066 21.9995 37.4066C26.6678 37.4066 27.2518 37.3871 29.085 37.3075C30.9148 37.2274 32.1652 36.951 33.2588 36.5452C34.3889 36.1262 35.3464 35.5643 36.3014 34.6516C37.2575 33.7398 37.8446 32.8245 38.2852 31.7458C38.7076 30.7022 38.9977 29.5096 39.0837 27.7636C39.166 26.0138 39.1875 25.4559 39.1875 21.0002C39.1875 16.5444 39.166 15.9853 39.0837 14.2352C38.9977 12.4886 38.7076 11.2965 38.2852 10.2534C37.8446 9.17421 37.2575 8.25891 36.3014 7.34688C35.3454 6.43437 34.3893 5.87377 33.2578 5.45524C32.1621 5.04935 30.9124 4.77274 29.0826 4.69284C27.2492 4.61327 26.6655 4.59375 21.9962 4.59375H22.0015ZM20.4597 7.55032C20.9174 7.54966 21.428 7.55032 22.0015 7.55032C26.5908 7.55032 27.1346 7.56607 28.9468 7.64466C30.6226 7.71783 31.5322 7.98509 32.138 8.20969C32.9402 8.50697 33.512 8.86249 34.1132 9.43687C34.7148 10.0111 35.0871 10.5579 35.3994 11.3236C35.6347 11.9011 35.915 12.7693 35.9913 14.3689C36.0736 16.0985 36.0915 16.6179 36.0915 20.9964C36.0915 25.3749 36.0736 25.8945 35.9913 27.6239C35.9147 29.2235 35.6347 30.0917 35.3994 30.6694C35.0879 31.435 34.7148 31.9802 34.1132 32.5541C33.5117 33.1283 32.9405 33.4837 32.138 33.7811C31.5329 34.0067 30.6226 34.2733 28.9468 34.3465C27.1349 34.4251 26.5908 34.4421 22.0015 34.4421C17.4121 34.4421 16.8682 34.4251 15.0564 34.3465C13.3806 34.2727 12.4711 34.0054 11.8647 33.7808C11.0627 33.4834 10.4897 33.128 9.88814 32.5538C9.28658 31.9796 8.9143 31.434 8.602 30.668C8.3667 30.0904 8.08637 29.2222 8.01006 27.6225C7.92773 25.893 7.91123 25.3736 7.91123 20.9923C7.91123 16.6112 7.92773 16.0944 8.01006 14.3648C8.08672 12.7652 8.3667 11.897 8.602 11.3187C8.91361 10.553 9.28658 10.0062 9.88831 9.43195C10.4899 8.85773 11.0627 8.50221 11.8649 8.20427C12.4707 7.97869 13.3806 7.71209 15.0564 7.63859C16.642 7.57017 17.2564 7.54966 20.4597 7.54622V7.55032ZM31.1762 10.2744C30.0376 10.2744 29.1137 11.1554 29.1137 12.2425C29.1137 13.3294 30.0376 14.2113 31.1762 14.2113C32.3149 14.2113 33.2387 13.3294 33.2387 12.2425C33.2387 11.1556 32.3149 10.2738 31.1762 10.2738V10.2744ZM22.0015 12.5747C17.1272 12.5747 13.1751 16.3472 13.1751 21.0002C13.1751 25.6531 17.1272 29.4238 22.0015 29.4238C26.8761 29.4238 30.8268 25.6531 30.8268 21.0002C30.8268 16.3474 26.8758 12.5747 22.0012 12.5747H22.0015ZM22.0015 15.5313C25.1656 15.5313 27.7308 17.9796 27.7308 21.0002C27.7308 24.0204 25.1656 26.469 22.0015 26.469C18.8373 26.469 16.2724 24.0204 16.2724 21.0002C16.2724 17.9796 18.8373 15.5313 22.0015 15.5313Z" fill="white"/>
</g>
<defs>
<radialGradient id="paint0_radial_75_59" cx="0" cy="0" r="1" gradientUnits="userSpaceOnUse" gradientTransform="translate(11.6875 45.2348) rotate(-90) scale(41.6251 40.5582)">
<stop stop-color="#FFDD55"/>
<stop offset="0.1" stop-color="#FFDD55"/>
<stop offset="0.5" stop-color="#FF543E"/>
<stop offset="1" stop-color="#C837AB"/>
</radialGradient>
<radialGradient id="paint1_radial_75_59" cx="0" cy="0" r="1" gradientUnits="userSpaceOnUse" gradientTransform="translate(-7.37017 3.02548) rotate(78.1569) scale(18.6416 80.199)">
<stop stop-color="#3771C8"/>
<stop offset="0.128" stop-color="#3771C8"/>
<stop offset="1" stop-color="#6600FF" stop-opacity="0"/>
</radialGradient>
<clipPath id="clip0_75_59">
<rect width="44" height="42" fill="white"/>
</clipPath>
</defs>
</svg>
