<svg width="62" height="46" viewBox="0 0 62 46" fill="none" xmlns="http://www.w3.org/2000/svg">
<path d="M17.1017 20.6808C20.8217 26.105 26.815 30.5325 34.1258 33.3117L39.8092 29.095C40.5067 28.5775 41.54 28.405 42.4442 28.635C45.3375 29.3442 48.4633 29.7275 51.6667 29.7275C53.0875 29.7275 54.25 30.59 54.25 31.6442V38.3333C54.25 39.3875 53.0875 40.25 51.6667 40.25C27.4092 40.25 7.75 25.6642 7.75 7.66667C7.75 6.6125 8.9125 5.75 10.3333 5.75H19.375C20.7958 5.75 21.9583 6.6125 21.9583 7.66667C21.9583 10.0625 22.475 12.3625 23.4308 14.5092C23.715 15.18 23.5083 15.9275 22.785 16.4642L17.1017 20.6808Z" fill="black"/>
</svg>
