<svg width="11" height="14" viewBox="0 0 11 14" fill="none" xmlns="http://www.w3.org/2000/svg">
<path id="icone senha" d="M8.91784 5.00004V3.66671C8.91784 2.78265 8.55812 1.93481 7.9178 1.30968C7.27749 0.684563 6.40903 0.333374 5.50349 0.333374C4.59795 0.333374 3.72949 0.684563 3.08918 1.30968C2.44886 1.93481 2.08914 2.78265 2.08914 3.66671V5.00004C1.54581 5.00004 1.02474 5.21075 0.640552 5.58583C0.256363 5.9609 0.0405273 6.46961 0.0405273 7.00004V11.6667C0.0405273 12.1971 0.256363 12.7058 0.640552 13.0809C1.02474 13.456 1.54581 13.6667 2.08914 13.6667H8.91784C9.46117 13.6667 9.98224 13.456 10.3664 13.0809C10.7506 12.7058 10.9665 12.1971 10.9665 11.6667V7.00004C10.9665 6.46961 10.7506 5.9609 10.3664 5.58583C9.98224 5.21075 9.46117 5.00004 8.91784 5.00004ZM3.45488 3.66671C3.45488 3.13627 3.67071 2.62757 4.0549 2.25249C4.43909 1.87742 4.96017 1.66671 5.50349 1.66671C6.04682 1.66671 6.56789 1.87742 6.95208 2.25249C7.33627 2.62757 7.5521 3.13627 7.5521 3.66671V5.00004H3.45488V3.66671ZM9.60071 11.6667C9.60071 11.8435 9.52877 12.0131 9.40071 12.1381C9.27264 12.2631 9.09895 12.3334 8.91784 12.3334H2.08914C1.90803 12.3334 1.73434 12.2631 1.60628 12.1381C1.47821 12.0131 1.40627 11.8435 1.40627 11.6667V7.00004C1.40627 6.82323 1.47821 6.65366 1.60628 6.52864C1.73434 6.40361 1.90803 6.33337 2.08914 6.33337H8.91784C9.09895 6.33337 9.27264 6.40361 9.40071 6.52864C9.52877 6.65366 9.60071 6.82323 9.60071 7.00004V11.6667Z" fill="#767676"/>
</svg>
