<svg width="13" height="14" viewBox="0 0 13 14" fill="none" xmlns="http://www.w3.org/2000/svg">
<path id="icone usuario" d="M6.75 8.9075V10.2137C6.18433 10.0138 5.57892 9.95241 4.98463 10.0349C4.39033 10.1173 3.8245 10.3412 3.33464 10.6876C2.84479 11.0341 2.44522 11.493 2.16948 12.0259C1.89374 12.5588 1.74989 13.15 1.75 13.75H0.5C0.499711 12.9868 0.674161 12.2336 1.00998 11.5482C1.3458 10.8628 1.83408 10.2633 2.43739 9.79584C3.0407 9.32833 3.74304 9.00515 4.49057 8.85106C5.2381 8.69697 6.01099 8.71669 6.75 8.9075ZM5.5 8.125C3.42813 8.125 1.75 6.44688 1.75 4.375C1.75 2.30312 3.42813 0.625 5.5 0.625C7.57188 0.625 9.25 2.30312 9.25 4.375C9.25 6.44688 7.57188 8.125 5.5 8.125ZM5.5 6.875C6.88125 6.875 8 5.75625 8 4.375C8 2.99375 6.88125 1.875 5.5 1.875C4.11875 1.875 3 2.99375 3 4.375C3 5.75625 4.11875 6.875 5.5 6.875ZM9.25 10.625V8.75H10.5V10.625H12.375V11.875H10.5V13.75H9.25V11.875H7.375V10.625H9.25Z" fill="#767676"/>
</svg>
