<svg width="16" height="13" viewBox="0 0 14 15" fill="none" xmlns="http://www.w3.org/2000/svg">
<path d="M7.25336 9.33632V10.7704C6.59709 10.5509 5.89474 10.4835 5.20527 10.5741C4.5158 10.6646 3.85935 10.9104 3.29104 11.2907C2.72274 11.6711 2.25918 12.1749 1.93928 12.76C1.61938 13.345 1.45249 13.9942 1.45263 14.6529H0.00244182C0.00210607 13.8149 0.204493 12.988 0.594094 12.2355C0.983694 11.483 1.55017 10.8249 2.2501 10.3116C2.95003 9.79835 3.76484 9.44353 4.63208 9.27435C5.49933 9.10518 6.396 9.12683 7.25336 9.33632ZM5.80317 8.47722C3.3995 8.47722 1.45263 6.63481 1.45263 4.3601C1.45263 2.08539 3.3995 0.242981 5.80317 0.242981C8.20685 0.242981 10.1537 2.08539 10.1537 4.3601C10.1537 6.63481 8.20685 8.47722 5.80317 8.47722ZM5.80317 7.10484C7.40563 7.10484 8.70354 5.87657 8.70354 4.3601C8.70354 2.84363 7.40563 1.61535 5.80317 1.61535C4.20072 1.61535 2.90281 2.84363 2.90281 4.3601C2.90281 5.87657 4.20072 7.10484 5.80317 7.10484ZM10.1537 11.222V9.1634H11.6039V11.222H13.7792V12.5943H11.6039V14.6529H10.1537V12.5943H7.97845V11.222H10.1537Z" fill="#767676"/>
</svg>
