<svg width="16" height="13" viewBox="0 0 25 26" fill="none" xmlns="http://www.w3.org/2000/svg">
<path d="M21.6397 16.2805L17.0264 14.1304C16.8174 14.0372 16.5893 13.9998 16.3628 14.0214C16.1364 14.0431 15.9187 14.1231 15.7295 14.2543C15.7103 14.2671 15.692 14.2814 15.6748 14.2969L13.2637 16.4298C13.2387 16.4439 13.2108 16.4519 13.1823 16.4529C13.1539 16.454 13.1255 16.4481 13.0996 16.4359C11.5498 15.6579 9.94435 13.9984 9.19337 12.4089C9.18086 12.3823 9.17436 12.3532 9.17436 12.3236C9.17436 12.294 9.18086 12.2648 9.19337 12.2383L11.251 9.69922C11.2658 9.68043 11.2794 9.66076 11.292 9.64031C11.4164 9.44277 11.4915 9.21613 11.5106 8.98083C11.5297 8.74554 11.4922 8.509 11.4014 8.29257L9.34864 3.50289C9.23207 3.22015 9.03047 2.98435 8.77409 2.83089C8.51772 2.67744 8.2204 2.61459 7.92677 2.65179C6.65062 2.82627 5.47922 3.47804 4.63148 4.4853C3.78373 5.49256 3.31765 6.78639 3.32032 8.125C3.32032 16.0773 9.54103 22.5469 17.1875 22.5469C18.4746 22.5494 19.7185 22.0646 20.687 21.183C21.6555 20.3014 22.2822 19.0833 22.4502 17.7562C22.4859 17.4522 22.4263 17.1444 22.2803 16.8785C22.1342 16.6126 21.9095 16.4029 21.6397 16.2805ZM17.1875 21.3281C10.1875 21.3281 4.4922 15.405 4.4922 8.125C4.48893 7.08289 4.8506 6.0752 5.50963 5.29019C6.16865 4.50519 7.07995 3.99657 8.07325 3.85937H8.09571C8.13507 3.86014 8.17328 3.87325 8.20535 3.89699C8.23741 3.92073 8.26183 3.95399 8.2754 3.99242L10.3359 8.77703C10.3477 8.80363 10.3538 8.83256 10.3538 8.86183C10.3538 8.89111 10.3477 8.92004 10.3359 8.94664L8.27443 11.4918C8.25905 11.51 8.24501 11.5293 8.23243 11.5497C8.10343 11.7545 8.02747 11.9905 8.0119 12.2348C7.99633 12.4791 8.04169 12.7234 8.14357 12.9441C9.00978 14.7885 10.7969 16.6329 12.5899 17.5337C12.8033 17.6391 13.0394 17.6851 13.2751 17.6673C13.5108 17.6495 13.738 17.5685 13.9346 17.4322C13.9531 17.419 13.9717 17.4048 13.9893 17.3895L16.3994 15.2567C16.4232 15.2434 16.4495 15.2356 16.4765 15.2339C16.5035 15.2321 16.5305 15.2364 16.5557 15.2466L21.1699 17.3966C21.2076 17.4133 21.2393 17.4419 21.2605 17.4784C21.2817 17.5148 21.2914 17.5573 21.2881 17.5998C21.1569 18.6333 20.6683 19.5817 19.9136 20.2679C19.159 20.954 18.1899 21.3309 17.1875 21.3281Z" fill="#767676"/>
</svg>
